# xmcd
#
# Track frame offsets:
# 150
# 10899
# 22893
# 34400
# 44696
# 57090
# 69268
# 83134
# 93919
# 106955
# 119068
# 130558
#
# Disc length: 1840 seconds
#
#
# Revision: 0
# Processed by: cddbd v1.5.1PL0 Copyright (c) Steve Scherf et al.
# Submitted via: FreeRIP 2.92 
#
DISCID=96072e0c
DTITLE=Jerry Stacy - Cold Trailing
DYEAR=2005
DGENRE=Bluegrass
TTITLE0=I've Got A Mule To Ride
TTITLE1=Lick Branch of Ball
TTITLE2=Cold Trailing
TTITLE3=Red Rocking Chair
TTITLE4=Sally Goodin'
TTITLE5=Kujo Ed
TTITLE6=I'm Living The Right Life Now
TTITLE7=Home Sweet Home
TTITLE8=Shout Little Lulu
TTITLE9=Dixie Land
TTITLE10=Cuttin' The Cornbread
TTITLE11=Smokey Holler
EXTD=Clawhammer Style Banjo
EXTT0=
EXTT1=
EXTT2=
EXTT3=
EXTT4=
EXTT5=
EXTT6=
EXTT7=
EXTT8=
EXTT9=
EXTT10=
EXTT11=
PLAYORDER=
